@startuml

class ObjectX
{
    ' 公有成员变量
    +public_member
    ' 保护成员变量
    #protected_member
    ' 私有成员变量
    -private_member
    ' 静态成员变量
    {static} static_member
    {abstract} void abstract_func()
    ' 公有方法
    +void init()
    
}
class Sub
{
    {field} +x
    {field} +y
    {method} int getX()
}
Sub : +void init()

ObjectX <|-- Sub

class Object << general >>
Object <|--- ArrayList

note top of Object : In java, every class\nextends this one.

note "This is a floating note" as N1
note "This note is connected\nto several objects." as N2
Object .. N2
N2 .. ArrayList

class Foo
note left: On last defined class
@enduml